<svg height="195" viewBox="0 0 251 195" width="251" xmlns="http://www.w3.org/2000/svg"><path d="m0 156.715201c.15954152-.549764.33425257-1.095344.47548605-1.649293.71662913-2.8095 2.07456287-5.343333 3.42465031-7.874028 2.60340379-4.880925 5.92029819-9.260732 9.71267864-13.26287 3.4194194-3.608254 7.2060459-6.811638 11.2448003-9.727848 5.4573663-3.939368 11.2767087-7.243185 17.3392865-10.132718 4.7888611-2.282751 9.70274-4.275712 14.7264671-5.97156 3.5936075-1.213039 7.2489391-2.244043 10.8802088-3.343572 1.3673493-.413762 2.7462065-.791431 4.1716185-1.199962v-3.9111208c.0005231-1.9375141.0251081-3.8745051-.0136003-5.81045-.012031-.6104425.1768034-.9917728.6894286-1.3187022 2.9920574-1.9108367 5.9454064-3.8833976 8.9636181-5.7513411.9347564-.5785342 1.2663936-1.2004846 1.263255-2.3193676-.0434162-17.16196-.0256312-34.32392-.0449854-51.48588-.0010462-.6873363.2343429-1.0848823.7731225-1.485567 4.878309-3.6270849 9.7288943-7.290786 14.5967415-10.9319943 4.9656648-3.7144405 9.9459758-7.4100498 14.9121628-11.12396724 4.089494-3.05796636 8.172188-6.12534828 12.24442-9.20580738.323791-.24480469.490655-.300775.852108-.02667743 4.043986 3.07104353 8.106802 6.11697889 12.168572 9.16396042 4.726614 3.54652953 9.456366 7.08835133 14.186642 10.62965003 4.672212 3.4978825 9.27067 7.1019517 14.060054 10.4308771 1.721479 1.1962998 2.164011 2.4449084 2.154595 4.4185155-.076894 16.7696448-.041324 33.5398127-.056493 50.3094575-.000523.5513336.15588.8599549.628227 1.1638684 3.273478 2.105425 6.516618 4.2579279 9.786434 6.3691068.391792.252651.502164.5272717.497979.9567261-.016216 1.6885247-.0068 3.3775725-.0068 5.1586836.99805.1778495 1.951637.3583145 2.908886.5157637 2.891102.4760091 5.792142.8976169 8.673305 1.4275039 2.590327.47601 5.179607.987066 7.733841 1.624185 3.897521.972419 7.805504 1.938038 11.633977 3.14323 4.258974 1.341195 8.479763 2.8299 12.633596 4.466639 5.256501 2.071425 10.238381 4.709352 14.801269 8.077509 3.77878 2.7891 6.979549 6.120118 9.379472 10.182411 1.119929 1.895667 2.085548 3.882351 2.445955 6.055255.216558 1.309286.20505 2.70959.007323 4.025677-.507395 3.371818-1.884682 6.424031-3.810689 9.230392-1.873697 2.730514-4.155402 5.085452-6.670405 7.222262-3.107659 2.640543-6.460123 4.943695-10.057916 6.845639-3.218031 1.701602-6.482616 3.342526-9.832988 4.75643-3.39745 1.434304-6.917825 2.579865-10.402107 3.803888-1.009035.354653-2.07404.554995-3.119691.800323-.287698.068001-.597365.047078-.896571.066955-.010985-.059632-.020924-.119264-.031908-.179419 1.259593-.58638 2.521279-1.169622 3.779826-1.759664 5.612723-2.633743 11.101998-5.487182 16.302528-8.887771 3.615577-2.36383 7.048074-4.937417 10.052685-8.050308 2.043178-2.115364 3.809119-4.442577 4.917018-7.18983.96928-2.402539 1.244947-4.886679.712444-7.463405-.796138-3.854628-3.131198-6.704928-5.942268-9.233008-3.520898-3.165199-7.569068-5.529029-11.87512-7.435158-2.481001-1.098482-5.02425-2.069855-7.584761-2.967472-1.465166-.514195-3.019258-.7794-4.538302-1.133006-1.827666-.426316-3.656378-.851586-5.493459-1.234486-2.936611-.611488-5.877406-1.202577-8.821862-1.774834-2.75353-.535641-5.510198-1.055589-8.272097-1.543106-1.466736-.259451-2.949164-.428932-4.423224-.651767-1.593322-.240097-3.180368-.523087-4.77683-.73546-1.698986-.225973-3.405296-.392315-5.10899-.583765-2.330875-.262066-4.660182-.53721-6.993149-.778876-1.339103-.139142-2.682913-.241667-4.026724-.329545-10.207519-.669551-20.423407-.995435-30.648711-.522041-3.547576.164249-7.089921.452993-10.631742.722383-2.3654.179419-4.731845.370346-7.085736.656997-2.959626.359361-5.911406.796139-8.859001 1.247563-2.87227.440439-5.7434948.900232-8.6000727 1.429596-2.2743821.421085-4.535687.924818-6.7875763 1.456798-3.1777533.750629-6.3659683 1.475105-9.5050132 2.368537-3.6950862 1.051928-7.3608796 2.215797-11.0041803 3.436682-3.3608337 1.126729-6.7284675 2.266012-9.997761 3.627608-4.433162 1.845974-8.8443543 3.773026-13.1388982 5.917682-4.4682088 2.232536-8.8694625 4.628797-13.1509292 7.201862-5.6284157 3.382803-11.0172576 7.126536-15.7349788 11.760041-1.4949826 1.467259-2.4082924 3.241046-3.0401814 5.158683-.4911787 1.491321-.8725091 3.050643-1.0472201 4.607873-.3091444 2.756145.4535164 5.328164 1.8716051 7.68624 1.9171137 3.187169 4.7355062 5.442197 7.8640893 7.331587 3.2143694 1.941699 6.6102499 3.50939 10.2038573 4.615196 3.1128905.957772 6.2283964 1.912406 9.3711029 2.765561 1.9955767.541918 4.036139.930048 6.0688549 1.324456 2.2534586.437301 4.5126712.85734 6.7833916 1.186884 2.6834361.389177 5.3757647.734414 8.0748934.986019 2.3627838.22022 4.7423064.262067 7.1108441.428932.7600454.053354.9405104-.204527.9399873-.944172-.0193542-19.785242-.0146464-39.571006-.0141234-59.356247 0-1.164914-.0047077-1.181653 1.1016212-1.503875 2.8738397-.836939 5.7414024-1.698463 8.631981-2.475247 2.9141174-.783061 5.8428813-1.519045 8.7841992-2.196442 2.6117732-.602074 5.2418545-1.132484 7.8766435-1.625755 2.6170038-.489086 5.2423778-.945218 7.8776898-1.320794 3.530314-.503733 7.067951-.967711 10.612911-1.351134 3.306433-.358314 6.625419-.602596 9.941268-.874078 8.050308-.659613 16.115786-.593704 24.179171-.416901 3.623947.07951 7.251032.245851 10.865039.523087 4.122449.316468 8.232866.793 12.346945 1.217747 1.773265.18308 3.541822.411669 5.402442.63032v46.882191c9.491936-3.884966 18.575864-8.194157 27.448988-12.960002.035047.060678.070094.121356.105141.182034-.867802.575919-1.713633 1.186884-2.605496 1.721479-5.890483 3.533453-11.718718 7.1778-17.708586 10.533926-5.213085 2.920917-10.575772 5.582907-15.940029 8.222926-4.245374 2.08921-8.554564 4.061771-12.907694 5.918729-3.930998 1.67754-7.943599 3.173046-11.949922 4.667505-3.255693 1.214085-6.540679 2.355984-9.841881 3.441389-2.559464.84217-5.15136 1.594893-7.752671 2.30106-3.45499.937895-6.921487 1.837604-10.403677 2.666697-3.224831.768415-6.462739 1.498121-9.721571 2.103333-3.093536.574349-6.222643.961957-9.3344868 1.440058-9.5635989 1.467782-19.1972914 1.826097-28.8550459 1.879452-5.1921612.028246-10.3858916.307575-15.5754373.232773-2.923533-.04237-5.8575277-.465024-8.7549064-.917494-2.8377467-.443578-5.6697395-1.015312-8.4410542-1.764372-2.7864843-.752722-5.5149058-1.737695-8.2333887-2.719006-3.5052058-1.264825-6.839362-2.909933-10.0594853-4.786246-4.6104885-2.686052-8.8307541-5.86799-12.38460686-9.869082-2.69285166-3.031812-4.8610471-6.39003-5.98463789-10.337767-.18621895-.653859-.27043595-1.335964-.42474661-1.999762-.05335486-.227542-.17837265-.438347-.27095904-.656997z" fill="#37139f" fill-rule="evenodd" transform="translate(.567688 -.022192)"></path></svg>